<?xml version="1.0" standalone="no"?>
<!DOCTYPE svg PUBLIC "-//W3C//DTD SVG 20010904//EN"
 "http://www.w3.org/TR/2001/REC-SVG-20010904/DTD/svg10.dtd">
<svg version="1.0" xmlns="http://www.w3.org/2000/svg"
 width="260.000000pt" height="260.000000pt" viewBox="0 0 260.000000 260.000000"
 preserveAspectRatio="xMidYMid meet">
<metadata>
Created by potrace 1.14, written by Peter Selinger 2001-2017
</metadata>
<g transform="translate(0.000000,260.000000) scale(0.100000,-0.100000)"
fill="#000000" stroke="none">
<path d="M0 1300 l0 -1300 1300 0 1300 0 0 1300 0 1300 -1300 0 -1300 0 0
-1300z m878 513 c5 -16 109 -286 231 -601 122 -315 221 -575 221 -577 0 -3
-35 -5 -78 -5 l-78 0 -64 170 -63 170 -257 0 -257 0 -60 -167 -60 -168 -81 -3
-82 -3 19 48 c10 26 115 299 232 605 l214 558 77 0 c74 0 76 -1 86 -27z m1157
-3 c76 -37 131 -98 151 -166 40 -137 -25 -281 -158 -351 -31 -16 -37 -22 -22
-23 79 -1 185 -76 225 -157 32 -67 33 -197 1 -266 -31 -70 -73 -118 -134 -154
-89 -53 -146 -63 -380 -63 l-208 0 0 606 0 606 238 -4 c228 -3 239 -4 287 -28z"/>
<path d="M776 1647 c-4 -17 -49 -147 -100 -287 l-93 -255 103 -3 c57 -1 151
-1 207 0 l104 3 -98 265 c-54 146 -98 273 -98 282 -1 31 -19 28 -25 -5z"/>
<path d="M1732 1712 l-82 -3 2 -192 3 -192 100 0 c56 0 122 7 149 14 120 35
180 173 123 281 -39 74 -116 98 -295 92z"/>
<path d="M1733 1192 l-83 -3 0 -214 0 -215 128 0 c193 0 264 28 308 124 37 80
28 171 -23 230 -53 61 -153 84 -330 78z"/>
</g>
</svg>
